<svg xmlns="http://www.w3.org/2000/svg" viewBox="0 0 1000 430" role="img" aria-labelledby="t"><title id="t">Tropical island destination</title><defs><linearGradient id="sky" x2="0" y2="1"><stop stop-color="#68cde0"/><stop offset="1" stop-color="#e9fbff"/></linearGradient><linearGradient id="sea"><stop stop-color="#1fa6ba"/><stop offset="1" stop-color="#75d6cf"/></linearGradient></defs><rect width="1000" height="260" fill="url(#sky)"/><rect y="260" width="1000" height="170" fill="url(#sea)"/><g fill="#fff" opacity=".75"><ellipse cx="180" cy="90" rx="120" ry="28"/><ellipse cx="760" cy="75" rx="150" ry="34"/></g><path d="M0 210 L115 110 205 190 285 72 400 220 470 430 0 430Z" fill="#285d52"/><path d="M1000 184 L895 90 810 173 742 120 652 245 625 430 1000 430Z" fill="#214f49"/><path d="M0 268 Q120 240 215 278 T440 274" fill="none" stroke="#dce9c6" stroke-width="20"/><path d="M1000 250 Q890 225 790 270 T610 275" fill="none" stroke="#dce9c6" stroke-width="16"/><path d="M0 350 Q130 315 290 342 T610 344 T1000 337" fill="none" stroke="#fff" stroke-opacity=".62" stroke-width="8"/><path d="M0 390 Q200 340 410 390 L440 430 0 430Z" fill="#edcf91"/><g fill="#183f37" opacity=".9"><circle cx="118" cy="185" r="35"/><circle cx="175" cy="210" r="44"/><circle cx="860" cy="195" r="48"/><circle cx="930" cy="170" r="40"/></g></svg>